<mxfile host="app.diagrams.net" modified="2023-10-15T18:55:39.834Z" agent="Mozilla/5.0 (Windows NT 10.0; Win64; x64) AppleWebKit/537.36 (KHTML, like Gecko) Chrome/117.0.0.0 Safari/537.36 Edg/117.0.2045.60" etag="A4QIml2yvvt7iB_jAIz_" version="22.0.4" type="github">
  <diagram name="Page-1" id="lirOacD941ONzYD2INz7">
    <mxGraphModel dx="2170" dy="737" grid="1" gridSize="10" guides="1" tooltips="1" connect="1" arrows="1" fold="1" page="1" pageScale="1" pageWidth="850" pageHeight="1100" math="0" shadow="0">
      <root>
        <mxCell id="0" />
        <mxCell id="1" parent="0" />
        <mxCell id="EalYKJbWxJ6EaDQ2qeVK-31" style="edgeStyle=orthogonalEdgeStyle;rounded=0;orthogonalLoop=1;jettySize=auto;html=1;entryX=1;entryY=0.5;entryDx=0;entryDy=0;endArrow=none;endFill=0;" edge="1" parent="1" source="EalYKJbWxJ6EaDQ2qeVK-1" target="EalYKJbWxJ6EaDQ2qeVK-5">
          <mxGeometry relative="1" as="geometry">
            <Array as="points">
              <mxPoint x="-280" y="360" />
              <mxPoint x="-280" y="310" />
            </Array>
          </mxGeometry>
        </mxCell>
        <mxCell id="EalYKJbWxJ6EaDQ2qeVK-32" style="edgeStyle=orthogonalEdgeStyle;rounded=0;orthogonalLoop=1;jettySize=auto;html=1;entryX=1;entryY=0.5;entryDx=0;entryDy=0;endArrow=none;endFill=0;" edge="1" parent="1" source="EalYKJbWxJ6EaDQ2qeVK-1" target="EalYKJbWxJ6EaDQ2qeVK-6">
          <mxGeometry relative="1" as="geometry">
            <mxPoint x="-299.9999999999999" y="420" as="targetPoint" />
            <Array as="points">
              <mxPoint x="-280" y="380" />
              <mxPoint x="-280" y="420" />
            </Array>
          </mxGeometry>
        </mxCell>
        <mxCell id="EalYKJbWxJ6EaDQ2qeVK-46" style="edgeStyle=orthogonalEdgeStyle;rounded=0;orthogonalLoop=1;jettySize=auto;html=1;exitX=0.414;exitY=1.032;exitDx=0;exitDy=0;entryX=0.5;entryY=0;entryDx=0;entryDy=0;endArrow=none;endFill=0;exitPerimeter=0;" edge="1" parent="1" source="EalYKJbWxJ6EaDQ2qeVK-1" target="EalYKJbWxJ6EaDQ2qeVK-37">
          <mxGeometry relative="1" as="geometry">
            <Array as="points">
              <mxPoint x="-199" y="390" />
              <mxPoint x="-200" y="390" />
              <mxPoint x="-200" y="440" />
              <mxPoint x="-120" y="440" />
            </Array>
          </mxGeometry>
        </mxCell>
        <mxCell id="EalYKJbWxJ6EaDQ2qeVK-48" style="edgeStyle=orthogonalEdgeStyle;rounded=0;orthogonalLoop=1;jettySize=auto;html=1;exitX=0.75;exitY=0;exitDx=0;exitDy=0;endArrow=none;endFill=0;" edge="1" parent="1" source="EalYKJbWxJ6EaDQ2qeVK-1" target="EalYKJbWxJ6EaDQ2qeVK-38">
          <mxGeometry relative="1" as="geometry">
            <Array as="points">
              <mxPoint x="-165" y="330" />
              <mxPoint x="-130" y="330" />
            </Array>
          </mxGeometry>
        </mxCell>
        <mxCell id="EalYKJbWxJ6EaDQ2qeVK-53" style="edgeStyle=orthogonalEdgeStyle;rounded=0;orthogonalLoop=1;jettySize=auto;html=1;entryX=0;entryY=0.5;entryDx=0;entryDy=0;endArrow=none;endFill=0;" edge="1" parent="1" source="EalYKJbWxJ6EaDQ2qeVK-1" target="EalYKJbWxJ6EaDQ2qeVK-36">
          <mxGeometry relative="1" as="geometry" />
        </mxCell>
        <mxCell id="EalYKJbWxJ6EaDQ2qeVK-59" style="edgeStyle=orthogonalEdgeStyle;rounded=0;orthogonalLoop=1;jettySize=auto;html=1;exitX=0.102;exitY=0.982;exitDx=0;exitDy=0;entryX=0.5;entryY=0;entryDx=0;entryDy=0;exitPerimeter=0;endArrow=none;endFill=0;" edge="1" parent="1" source="EalYKJbWxJ6EaDQ2qeVK-1" target="EalYKJbWxJ6EaDQ2qeVK-34">
          <mxGeometry relative="1" as="geometry">
            <Array as="points">
              <mxPoint x="-230" y="430" />
              <mxPoint x="-260" y="430" />
            </Array>
          </mxGeometry>
        </mxCell>
        <mxCell id="EalYKJbWxJ6EaDQ2qeVK-1" value="Automotores" style="rounded=1;arcSize=10;whiteSpace=wrap;html=1;align=center;" vertex="1" parent="1">
          <mxGeometry x="-240" y="350" width="100" height="40" as="geometry" />
        </mxCell>
        <mxCell id="EalYKJbWxJ6EaDQ2qeVK-9" style="edgeStyle=orthogonalEdgeStyle;rounded=0;orthogonalLoop=1;jettySize=auto;html=1;entryX=0;entryY=0.5;entryDx=0;entryDy=0;endArrow=none;endFill=0;" edge="1" parent="1" source="EalYKJbWxJ6EaDQ2qeVK-2" target="EalYKJbWxJ6EaDQ2qeVK-7">
          <mxGeometry relative="1" as="geometry" />
        </mxCell>
        <mxCell id="EalYKJbWxJ6EaDQ2qeVK-10" style="edgeStyle=orthogonalEdgeStyle;rounded=0;orthogonalLoop=1;jettySize=auto;html=1;exitX=1;exitY=0.5;exitDx=0;exitDy=0;endArrow=none;endFill=0;" edge="1" parent="1" source="EalYKJbWxJ6EaDQ2qeVK-2" target="EalYKJbWxJ6EaDQ2qeVK-8">
          <mxGeometry relative="1" as="geometry" />
        </mxCell>
        <mxCell id="EalYKJbWxJ6EaDQ2qeVK-64" style="edgeStyle=orthogonalEdgeStyle;rounded=0;orthogonalLoop=1;jettySize=auto;html=1;exitX=0.25;exitY=0;exitDx=0;exitDy=0;entryX=1;entryY=0.5;entryDx=0;entryDy=0;endArrow=none;endFill=0;" edge="1" parent="1" source="EalYKJbWxJ6EaDQ2qeVK-2" target="EalYKJbWxJ6EaDQ2qeVK-58">
          <mxGeometry relative="1" as="geometry" />
        </mxCell>
        <mxCell id="EalYKJbWxJ6EaDQ2qeVK-2" value="Sucursales" style="rounded=1;arcSize=10;whiteSpace=wrap;html=1;align=center;" vertex="1" parent="1">
          <mxGeometry x="90" y="460" width="100" height="40" as="geometry" />
        </mxCell>
        <mxCell id="EalYKJbWxJ6EaDQ2qeVK-13" style="edgeStyle=orthogonalEdgeStyle;rounded=0;orthogonalLoop=1;jettySize=auto;html=1;entryX=0;entryY=0.5;entryDx=0;entryDy=0;endArrow=none;endFill=0;" edge="1" parent="1" source="EalYKJbWxJ6EaDQ2qeVK-3" target="EalYKJbWxJ6EaDQ2qeVK-12">
          <mxGeometry relative="1" as="geometry">
            <Array as="points">
              <mxPoint x="340" y="680" />
            </Array>
          </mxGeometry>
        </mxCell>
        <mxCell id="EalYKJbWxJ6EaDQ2qeVK-16" style="edgeStyle=orthogonalEdgeStyle;rounded=0;orthogonalLoop=1;jettySize=auto;html=1;exitX=0.75;exitY=1;exitDx=0;exitDy=0;endArrow=none;endFill=0;" edge="1" parent="1" source="EalYKJbWxJ6EaDQ2qeVK-3" target="EalYKJbWxJ6EaDQ2qeVK-11">
          <mxGeometry relative="1" as="geometry">
            <Array as="points">
              <mxPoint x="295" y="780" />
            </Array>
          </mxGeometry>
        </mxCell>
        <mxCell id="EalYKJbWxJ6EaDQ2qeVK-17" style="edgeStyle=orthogonalEdgeStyle;rounded=0;orthogonalLoop=1;jettySize=auto;html=1;entryX=0;entryY=0.5;entryDx=0;entryDy=0;endArrow=none;endFill=0;" edge="1" parent="1" source="EalYKJbWxJ6EaDQ2qeVK-3" target="EalYKJbWxJ6EaDQ2qeVK-14">
          <mxGeometry relative="1" as="geometry">
            <Array as="points">
              <mxPoint x="340" y="690" />
              <mxPoint x="340" y="700" />
            </Array>
          </mxGeometry>
        </mxCell>
        <mxCell id="EalYKJbWxJ6EaDQ2qeVK-18" style="edgeStyle=orthogonalEdgeStyle;rounded=0;orthogonalLoop=1;jettySize=auto;html=1;exitX=0.25;exitY=1;exitDx=0;exitDy=0;endArrow=none;endFill=0;" edge="1" parent="1" source="EalYKJbWxJ6EaDQ2qeVK-3" target="EalYKJbWxJ6EaDQ2qeVK-15">
          <mxGeometry relative="1" as="geometry">
            <Array as="points">
              <mxPoint x="230" y="700" />
            </Array>
          </mxGeometry>
        </mxCell>
        <mxCell id="EalYKJbWxJ6EaDQ2qeVK-62" style="edgeStyle=orthogonalEdgeStyle;rounded=0;orthogonalLoop=1;jettySize=auto;html=1;entryX=0.5;entryY=1;entryDx=0;entryDy=0;endArrow=none;endFill=0;" edge="1" parent="1" source="EalYKJbWxJ6EaDQ2qeVK-3" target="EalYKJbWxJ6EaDQ2qeVK-57">
          <mxGeometry relative="1" as="geometry" />
        </mxCell>
        <mxCell id="EalYKJbWxJ6EaDQ2qeVK-3" value="Cliente" style="rounded=1;arcSize=10;whiteSpace=wrap;html=1;align=center;" vertex="1" parent="1">
          <mxGeometry x="220" y="660" width="100" height="40" as="geometry" />
        </mxCell>
        <mxCell id="EalYKJbWxJ6EaDQ2qeVK-25" style="edgeStyle=orthogonalEdgeStyle;rounded=0;orthogonalLoop=1;jettySize=auto;html=1;exitX=0;exitY=0;exitDx=0;exitDy=0;entryX=1;entryY=0.5;entryDx=0;entryDy=0;endArrow=none;endFill=0;" edge="1" parent="1" source="EalYKJbWxJ6EaDQ2qeVK-4" target="EalYKJbWxJ6EaDQ2qeVK-20">
          <mxGeometry relative="1" as="geometry">
            <Array as="points">
              <mxPoint x="-210" y="710" />
              <mxPoint x="-210" y="700" />
            </Array>
          </mxGeometry>
        </mxCell>
        <mxCell id="EalYKJbWxJ6EaDQ2qeVK-27" style="edgeStyle=orthogonalEdgeStyle;rounded=0;orthogonalLoop=1;jettySize=auto;html=1;exitX=0.5;exitY=1;exitDx=0;exitDy=0;endArrow=none;endFill=0;entryX=0.5;entryY=0;entryDx=0;entryDy=0;" edge="1" parent="1" source="EalYKJbWxJ6EaDQ2qeVK-4" target="EalYKJbWxJ6EaDQ2qeVK-21">
          <mxGeometry relative="1" as="geometry">
            <Array as="points">
              <mxPoint x="-190" y="750" />
              <mxPoint x="-190" y="780" />
              <mxPoint x="-250" y="780" />
            </Array>
          </mxGeometry>
        </mxCell>
        <mxCell id="EalYKJbWxJ6EaDQ2qeVK-28" style="edgeStyle=orthogonalEdgeStyle;rounded=0;orthogonalLoop=1;jettySize=auto;html=1;endArrow=none;endFill=0;entryX=0.5;entryY=0;entryDx=0;entryDy=0;" edge="1" parent="1" source="EalYKJbWxJ6EaDQ2qeVK-4" target="EalYKJbWxJ6EaDQ2qeVK-23">
          <mxGeometry relative="1" as="geometry">
            <Array as="points">
              <mxPoint x="-160" y="790" />
              <mxPoint x="-130" y="790" />
            </Array>
          </mxGeometry>
        </mxCell>
        <mxCell id="EalYKJbWxJ6EaDQ2qeVK-29" style="edgeStyle=orthogonalEdgeStyle;rounded=0;orthogonalLoop=1;jettySize=auto;html=1;exitX=0.75;exitY=1;exitDx=0;exitDy=0;entryX=0;entryY=0.5;entryDx=0;entryDy=0;endArrow=none;endFill=0;" edge="1" parent="1" source="EalYKJbWxJ6EaDQ2qeVK-4" target="EalYKJbWxJ6EaDQ2qeVK-24">
          <mxGeometry relative="1" as="geometry">
            <Array as="points">
              <mxPoint x="-125" y="770" />
              <mxPoint x="-90" y="770" />
              <mxPoint x="-90" y="790" />
            </Array>
          </mxGeometry>
        </mxCell>
        <mxCell id="EalYKJbWxJ6EaDQ2qeVK-30" style="edgeStyle=orthogonalEdgeStyle;rounded=0;orthogonalLoop=1;jettySize=auto;html=1;entryX=0;entryY=0.5;entryDx=0;entryDy=0;endArrow=none;endFill=0;" edge="1" parent="1" source="EalYKJbWxJ6EaDQ2qeVK-4" target="EalYKJbWxJ6EaDQ2qeVK-22">
          <mxGeometry relative="1" as="geometry" />
        </mxCell>
        <mxCell id="EalYKJbWxJ6EaDQ2qeVK-60" style="edgeStyle=orthogonalEdgeStyle;rounded=0;orthogonalLoop=1;jettySize=auto;html=1;entryX=0;entryY=0.5;entryDx=0;entryDy=0;endArrow=none;endFill=0;startArrow=none;startFill=0;" edge="1" parent="1" source="EalYKJbWxJ6EaDQ2qeVK-4" target="EalYKJbWxJ6EaDQ2qeVK-56">
          <mxGeometry relative="1" as="geometry" />
        </mxCell>
        <mxCell id="EalYKJbWxJ6EaDQ2qeVK-4" value="Empleados" style="rounded=1;arcSize=10;whiteSpace=wrap;html=1;align=center;" vertex="1" parent="1">
          <mxGeometry x="-200" y="710" width="100" height="40" as="geometry" />
        </mxCell>
        <mxCell id="EalYKJbWxJ6EaDQ2qeVK-49" style="edgeStyle=orthogonalEdgeStyle;rounded=0;orthogonalLoop=1;jettySize=auto;html=1;entryX=1;entryY=0.5;entryDx=0;entryDy=0;endArrow=none;endFill=0;" edge="1" parent="1" source="EalYKJbWxJ6EaDQ2qeVK-5" target="EalYKJbWxJ6EaDQ2qeVK-43">
          <mxGeometry relative="1" as="geometry" />
        </mxCell>
        <mxCell id="EalYKJbWxJ6EaDQ2qeVK-5" value="Antiguos" style="rounded=1;arcSize=10;whiteSpace=wrap;html=1;align=center;" vertex="1" parent="1">
          <mxGeometry x="-420" y="290" width="100" height="40" as="geometry" />
        </mxCell>
        <mxCell id="EalYKJbWxJ6EaDQ2qeVK-50" style="edgeStyle=orthogonalEdgeStyle;rounded=0;orthogonalLoop=1;jettySize=auto;html=1;entryX=1;entryY=0.5;entryDx=0;entryDy=0;endArrow=none;endFill=0;" edge="1" parent="1" source="EalYKJbWxJ6EaDQ2qeVK-6" target="EalYKJbWxJ6EaDQ2qeVK-44">
          <mxGeometry relative="1" as="geometry" />
        </mxCell>
        <mxCell id="EalYKJbWxJ6EaDQ2qeVK-6" value="Nuevos" style="rounded=1;arcSize=10;whiteSpace=wrap;html=1;align=center;" vertex="1" parent="1">
          <mxGeometry x="-420" y="400" width="100" height="40" as="geometry" />
        </mxCell>
        <mxCell id="EalYKJbWxJ6EaDQ2qeVK-7" value="id" style="ellipse;whiteSpace=wrap;html=1;align=center;fontStyle=4;" vertex="1" parent="1">
          <mxGeometry x="160" y="390" width="100" height="40" as="geometry" />
        </mxCell>
        <mxCell id="EalYKJbWxJ6EaDQ2qeVK-8" value="Nombre" style="ellipse;whiteSpace=wrap;html=1;align=center;" vertex="1" parent="1">
          <mxGeometry x="210" y="460" width="100" height="40" as="geometry" />
        </mxCell>
        <mxCell id="EalYKJbWxJ6EaDQ2qeVK-11" value="Nombre" style="ellipse;whiteSpace=wrap;html=1;align=center;" vertex="1" parent="1">
          <mxGeometry x="310" y="760" width="100" height="40" as="geometry" />
        </mxCell>
        <mxCell id="EalYKJbWxJ6EaDQ2qeVK-12" value="DocumentoIdentifiacion" style="ellipse;whiteSpace=wrap;html=1;align=center;fontStyle=4;" vertex="1" parent="1">
          <mxGeometry x="350" y="610" width="140" height="40" as="geometry" />
        </mxCell>
        <mxCell id="EalYKJbWxJ6EaDQ2qeVK-14" value="Ciudad" style="ellipse;whiteSpace=wrap;html=1;align=center;" vertex="1" parent="1">
          <mxGeometry x="380" y="680" width="100" height="40" as="geometry" />
        </mxCell>
        <mxCell id="EalYKJbWxJ6EaDQ2qeVK-15" value="Telefonos" style="ellipse;shape=doubleEllipse;margin=3;whiteSpace=wrap;html=1;align=center;" vertex="1" parent="1">
          <mxGeometry x="180" y="770" width="100" height="40" as="geometry" />
        </mxCell>
        <mxCell id="EalYKJbWxJ6EaDQ2qeVK-19" value="DocumentoIdentifiacion" style="ellipse;whiteSpace=wrap;html=1;align=center;fontStyle=4;" vertex="1" parent="1">
          <mxGeometry x="-420" y="730" width="140" height="40" as="geometry" />
        </mxCell>
        <mxCell id="EalYKJbWxJ6EaDQ2qeVK-20" value="Codigo" style="ellipse;whiteSpace=wrap;html=1;align=center;fontStyle=4;" vertex="1" parent="1">
          <mxGeometry x="-400" y="680" width="100" height="40" as="geometry" />
        </mxCell>
        <mxCell id="EalYKJbWxJ6EaDQ2qeVK-21" value="Cargo" style="ellipse;whiteSpace=wrap;html=1;align=center;" vertex="1" parent="1">
          <mxGeometry x="-300" y="820" width="100" height="40" as="geometry" />
        </mxCell>
        <mxCell id="EalYKJbWxJ6EaDQ2qeVK-22" value="Telefonos" style="ellipse;shape=doubleEllipse;margin=3;whiteSpace=wrap;html=1;align=center;" vertex="1" parent="1">
          <mxGeometry x="-50" y="710" width="100" height="40" as="geometry" />
        </mxCell>
        <mxCell id="EalYKJbWxJ6EaDQ2qeVK-23" value="FechaNacimiento" style="ellipse;whiteSpace=wrap;html=1;align=center;" vertex="1" parent="1">
          <mxGeometry x="-185" y="830" width="110" height="40" as="geometry" />
        </mxCell>
        <mxCell id="EalYKJbWxJ6EaDQ2qeVK-24" value="FechaIngreso" style="ellipse;whiteSpace=wrap;html=1;align=center;" vertex="1" parent="1">
          <mxGeometry x="-60" y="780" width="110" height="40" as="geometry" />
        </mxCell>
        <mxCell id="EalYKJbWxJ6EaDQ2qeVK-26" style="edgeStyle=orthogonalEdgeStyle;rounded=0;orthogonalLoop=1;jettySize=auto;html=1;exitX=0;exitY=0.5;exitDx=0;exitDy=0;entryX=0.977;entryY=0.678;entryDx=0;entryDy=0;entryPerimeter=0;endArrow=none;endFill=0;" edge="1" parent="1" source="EalYKJbWxJ6EaDQ2qeVK-4" target="EalYKJbWxJ6EaDQ2qeVK-19">
          <mxGeometry relative="1" as="geometry" />
        </mxCell>
        <mxCell id="EalYKJbWxJ6EaDQ2qeVK-33" value="id" style="ellipse;whiteSpace=wrap;html=1;align=center;fontStyle=4;" vertex="1" parent="1">
          <mxGeometry x="-400" y="520" width="100" height="40" as="geometry" />
        </mxCell>
        <mxCell id="EalYKJbWxJ6EaDQ2qeVK-34" value="Tipo" style="ellipse;whiteSpace=wrap;html=1;align=center;" vertex="1" parent="1">
          <mxGeometry x="-310" y="470" width="100" height="40" as="geometry" />
        </mxCell>
        <mxCell id="EalYKJbWxJ6EaDQ2qeVK-36" value="Modelo" style="ellipse;whiteSpace=wrap;html=1;align=center;" vertex="1" parent="1">
          <mxGeometry x="-40" y="280" width="100" height="40" as="geometry" />
        </mxCell>
        <mxCell id="EalYKJbWxJ6EaDQ2qeVK-37" value="Numero Chasis" style="ellipse;whiteSpace=wrap;html=1;align=center;" vertex="1" parent="1">
          <mxGeometry x="-170" y="490" width="100" height="40" as="geometry" />
        </mxCell>
        <mxCell id="EalYKJbWxJ6EaDQ2qeVK-38" value="Color" style="ellipse;whiteSpace=wrap;html=1;align=center;" vertex="1" parent="1">
          <mxGeometry x="-180" y="260" width="100" height="40" as="geometry" />
        </mxCell>
        <mxCell id="EalYKJbWxJ6EaDQ2qeVK-40" value="Linea" style="ellipse;whiteSpace=wrap;html=1;align=center;" vertex="1" parent="1">
          <mxGeometry x="-290" y="260" width="100" height="40" as="geometry" />
        </mxCell>
        <mxCell id="EalYKJbWxJ6EaDQ2qeVK-43" value="Placa" style="ellipse;whiteSpace=wrap;html=1;align=center;fontStyle=4;" vertex="1" parent="1">
          <mxGeometry x="-570" y="290" width="100" height="40" as="geometry" />
        </mxCell>
        <mxCell id="EalYKJbWxJ6EaDQ2qeVK-44" value="Id" style="ellipse;whiteSpace=wrap;html=1;align=center;fontStyle=4;" vertex="1" parent="1">
          <mxGeometry x="-570" y="400" width="100" height="40" as="geometry" />
        </mxCell>
        <mxCell id="EalYKJbWxJ6EaDQ2qeVK-52" style="edgeStyle=orthogonalEdgeStyle;rounded=0;orthogonalLoop=1;jettySize=auto;html=1;entryX=0.504;entryY=0.948;entryDx=0;entryDy=0;entryPerimeter=0;endArrow=none;endFill=0;" edge="1" parent="1" source="EalYKJbWxJ6EaDQ2qeVK-1" target="EalYKJbWxJ6EaDQ2qeVK-40">
          <mxGeometry relative="1" as="geometry">
            <Array as="points">
              <mxPoint x="-220" y="320" />
              <mxPoint x="-240" y="320" />
            </Array>
          </mxGeometry>
        </mxCell>
        <mxCell id="EalYKJbWxJ6EaDQ2qeVK-61" style="edgeStyle=orthogonalEdgeStyle;rounded=0;orthogonalLoop=1;jettySize=auto;html=1;endArrow=classic;endFill=1;" edge="1" parent="1" source="EalYKJbWxJ6EaDQ2qeVK-56" target="EalYKJbWxJ6EaDQ2qeVK-2">
          <mxGeometry relative="1" as="geometry">
            <Array as="points">
              <mxPoint x="50" y="640" />
              <mxPoint x="50" y="480" />
            </Array>
          </mxGeometry>
        </mxCell>
        <mxCell id="EalYKJbWxJ6EaDQ2qeVK-56" value="Tiene" style="shape=rhombus;perimeter=rhombusPerimeter;whiteSpace=wrap;html=1;align=center;" vertex="1" parent="1">
          <mxGeometry x="-100" y="610" width="120" height="60" as="geometry" />
        </mxCell>
        <mxCell id="EalYKJbWxJ6EaDQ2qeVK-63" style="edgeStyle=orthogonalEdgeStyle;rounded=0;orthogonalLoop=1;jettySize=auto;html=1;entryX=0.5;entryY=1;entryDx=0;entryDy=0;endArrow=classic;endFill=1;" edge="1" parent="1" source="EalYKJbWxJ6EaDQ2qeVK-57" target="EalYKJbWxJ6EaDQ2qeVK-2">
          <mxGeometry relative="1" as="geometry" />
        </mxCell>
        <mxCell id="EalYKJbWxJ6EaDQ2qeVK-57" value="Asigna" style="shape=rhombus;perimeter=rhombusPerimeter;whiteSpace=wrap;html=1;align=center;" vertex="1" parent="1">
          <mxGeometry x="140" y="570" width="120" height="60" as="geometry" />
        </mxCell>
        <mxCell id="EalYKJbWxJ6EaDQ2qeVK-65" style="edgeStyle=orthogonalEdgeStyle;rounded=0;orthogonalLoop=1;jettySize=auto;html=1;exitX=0;exitY=0.5;exitDx=0;exitDy=0;entryX=1;entryY=1;entryDx=0;entryDy=0;endArrow=none;endFill=0;" edge="1" parent="1" source="EalYKJbWxJ6EaDQ2qeVK-58" target="EalYKJbWxJ6EaDQ2qeVK-1">
          <mxGeometry relative="1" as="geometry" />
        </mxCell>
        <mxCell id="EalYKJbWxJ6EaDQ2qeVK-58" value="Tiene" style="shape=rhombus;perimeter=rhombusPerimeter;whiteSpace=wrap;html=1;align=center;" vertex="1" parent="1">
          <mxGeometry x="-80" y="390" width="120" height="60" as="geometry" />
        </mxCell>
      </root>
    </mxGraphModel>
  </diagram>
</mxfile>
